<?xml version="1.0" encoding="UTF-8" standalone="no"?>
<!DOCTYPE svg PUBLIC "-//W3C//DTD SVG 1.1//EN"
 "http://www.w3.org/Graphics/SVG/1.1/DTD/svg11.dtd">
<!-- Generated by graphviz version 2.40.1 (20161225.0304)
 -->
<!-- Title: isucondition Pages: 1 -->
<svg width="1378pt" height="369pt"
 viewBox="0.00 0.00 1378.00 369.00" xmlns="http://www.w3.org/2000/svg" xmlns:xlink="http://www.w3.org/1999/xlink">
<g id="graph0" class="graph" transform="scale(1 1) rotate(0) translate(4 365)">
<title>isucondition</title>
<polygon fill="#ffffff" stroke="transparent" points="-4,4 -4,-365 1374,-365 1374,4 -4,4"/>
<!-- isu_association_config -->
<g id="node1" class="node">
<title>isu_association_config</title>
<polygon fill="#efefef" stroke="transparent" points="43,-192.5 43,-227.5 365,-227.5 365,-192.5 43,-192.5"/>
<polygon fill="none" stroke="#000000" points="43,-192.5 43,-227.5 365,-227.5 365,-192.5 43,-192.5"/>
<text text-anchor="start" x="49.6913" y="-205.3" font-family="Arial Bold" font-size="18.00" fill="#000000">isu_association_config</text>
<text text-anchor="start" x="230.7407" y="-205.3" font-family="Arial" font-size="14.00" fill="#000000">    </text>
<text text-anchor="start" x="264.9455" y="-205.3" font-family="Arial" font-size="14.00" fill="#666666">[BASE TABLE]</text>
<polygon fill="none" stroke="#000000" points="43,-162.5 43,-192.5 365,-192.5 365,-162.5 43,-162.5"/>
<text text-anchor="start" x="50" y="-173.9" font-family="Arial" font-size="14.00" fill="#000000">name    </text>
<text text-anchor="start" x="119.2132" y="-173.9" font-family="Arial" font-size="14.00" fill="#666666">[varchar(255)]</text>
<polygon fill="none" stroke="#000000" points="43,-132.5 43,-162.5 365,-162.5 365,-132.5 43,-132.5"/>
<text text-anchor="start" x="50" y="-143.9" font-family="Arial" font-size="14.00" fill="#000000">url    </text>
<text text-anchor="start" x="99.7546" y="-143.9" font-family="Arial" font-size="14.00" fill="#666666">[varchar(255)]</text>
</g>
<!-- isu_condition -->
<g id="node2" class="node">
<title>isu_condition</title>
<polygon fill="#efefef" stroke="transparent" points="469,-267.5 469,-302.5 715,-302.5 715,-267.5 469,-267.5"/>
<polygon fill="none" stroke="#000000" points="469,-267.5 469,-302.5 715,-302.5 715,-267.5 469,-267.5"/>
<text text-anchor="start" x="475.7019" y="-280.3" font-family="Arial Bold" font-size="18.00" fill="#000000">isu_condition</text>
<text text-anchor="start" x="580.7301" y="-280.3" font-family="Arial" font-size="14.00" fill="#000000">    </text>
<text text-anchor="start" x="614.9349" y="-280.3" font-family="Arial" font-size="14.00" fill="#666666">[BASE TABLE]</text>
<polygon fill="none" stroke="#000000" points="469,-237.5 469,-267.5 715,-267.5 715,-237.5 469,-237.5"/>
<text text-anchor="start" x="476" y="-248.9" font-family="Arial" font-size="14.00" fill="#000000">id    </text>
<text text-anchor="start" x="521.094" y="-248.9" font-family="Arial" font-size="14.00" fill="#666666">[bigint(20)]</text>
<polygon fill="none" stroke="#000000" points="469,-207.5 469,-237.5 715,-237.5 715,-207.5 469,-207.5"/>
<text text-anchor="start" x="476" y="-218.9" font-family="Arial" font-size="14.00" fill="#000000">jia_isu_uuid    </text>
<text text-anchor="start" x="584.1094" y="-218.9" font-family="Arial" font-size="14.00" fill="#666666">[char(36)]</text>
<polygon fill="none" stroke="#000000" points="469,-177.5 469,-207.5 715,-207.5 715,-177.5 469,-177.5"/>
<text text-anchor="start" x="476" y="-188.9" font-family="Arial" font-size="14.00" fill="#000000">timestamp    </text>
<text text-anchor="start" x="574.7616" y="-188.9" font-family="Arial" font-size="14.00" fill="#666666">[datetime]</text>
<polygon fill="none" stroke="#000000" points="469,-147.5 469,-177.5 715,-177.5 715,-147.5 469,-147.5"/>
<text text-anchor="start" x="476" y="-158.9" font-family="Arial" font-size="14.00" fill="#000000">is_sitting    </text>
<text text-anchor="start" x="564.6536" y="-158.9" font-family="Arial" font-size="14.00" fill="#666666">[tinyint(1)]</text>
<polygon fill="none" stroke="#000000" points="469,-117.5 469,-147.5 715,-147.5 715,-117.5 469,-117.5"/>
<text text-anchor="start" x="476" y="-128.9" font-family="Arial" font-size="14.00" fill="#000000">condition    </text>
<text text-anchor="start" x="566.2216" y="-128.9" font-family="Arial" font-size="14.00" fill="#666666">[varchar(255)]</text>
<polygon fill="none" stroke="#000000" points="469,-87.5 469,-117.5 715,-117.5 715,-87.5 469,-87.5"/>
<text text-anchor="start" x="476" y="-98.9" font-family="Arial" font-size="14.00" fill="#000000">message    </text>
<text text-anchor="start" x="566.9958" y="-98.9" font-family="Arial" font-size="14.00" fill="#666666">[varchar(255)]</text>
<polygon fill="none" stroke="#000000" points="469,-57.5 469,-87.5 715,-87.5 715,-57.5 469,-57.5"/>
<text text-anchor="start" x="476" y="-68.9" font-family="Arial" font-size="14.00" fill="#000000">created_at    </text>
<text text-anchor="start" x="576.3422" y="-68.9" font-family="Arial" font-size="14.00" fill="#666666">[datetime(6)]</text>
</g>
<!-- isu -->
<g id="node3" class="node">
<title>isu</title>
<polygon fill="#efefef" stroke="transparent" points="819,-282.5 819,-317.5 1021,-317.5 1021,-282.5 819,-282.5"/>
<polygon fill="none" stroke="#000000" points="819,-282.5 819,-317.5 1021,-317.5 1021,-282.5 819,-282.5"/>
<text text-anchor="start" x="844.7158" y="-295.3" font-family="Arial Bold" font-size="18.00" fill="#000000">isu</text>
<text text-anchor="start" x="867.7162" y="-295.3" font-family="Arial" font-size="14.00" fill="#000000">    </text>
<text text-anchor="start" x="901.921" y="-295.3" font-family="Arial" font-size="14.00" fill="#666666">[BASE TABLE]</text>
<polygon fill="none" stroke="#000000" points="819,-252.5 819,-282.5 1021,-282.5 1021,-252.5 819,-252.5"/>
<text text-anchor="start" x="826" y="-263.9" font-family="Arial" font-size="14.00" fill="#000000">id    </text>
<text text-anchor="start" x="871.094" y="-263.9" font-family="Arial" font-size="14.00" fill="#666666">[bigint(20)]</text>
<polygon fill="none" stroke="#000000" points="819,-222.5 819,-252.5 1021,-252.5 1021,-222.5 819,-222.5"/>
<text text-anchor="start" x="826" y="-233.9" font-family="Arial" font-size="14.00" fill="#000000">jia_isu_uuid    </text>
<text text-anchor="start" x="934.1094" y="-233.9" font-family="Arial" font-size="14.00" fill="#666666">[char(36)]</text>
<polygon fill="none" stroke="#000000" points="819,-192.5 819,-222.5 1021,-222.5 1021,-192.5 819,-192.5"/>
<text text-anchor="start" x="826" y="-203.9" font-family="Arial" font-size="14.00" fill="#000000">name    </text>
<text text-anchor="start" x="895.2132" y="-203.9" font-family="Arial" font-size="14.00" fill="#666666">[varchar(255)]</text>
<polygon fill="none" stroke="#000000" points="819,-162.5 819,-192.5 1021,-192.5 1021,-162.5 819,-162.5"/>
<text text-anchor="start" x="826" y="-173.9" font-family="Arial" font-size="14.00" fill="#000000">image    </text>
<text text-anchor="start" x="898.3198" y="-173.9" font-family="Arial" font-size="14.00" fill="#666666">[longblob]</text>
<polygon fill="none" stroke="#000000" points="819,-132.5 819,-162.5 1021,-162.5 1021,-132.5 819,-132.5"/>
<text text-anchor="start" x="826" y="-143.9" font-family="Arial" font-size="14.00" fill="#000000">character    </text>
<text text-anchor="start" x="918.547" y="-143.9" font-family="Arial" font-size="14.00" fill="#666666">[varchar(255)]</text>
<polygon fill="none" stroke="#000000" points="819,-102.5 819,-132.5 1021,-132.5 1021,-102.5 819,-102.5"/>
<text text-anchor="start" x="825.5" y="-113.9" font-family="Arial" font-size="14.00" fill="#000000">jia_user_id    </text>
<text text-anchor="start" x="927.3808" y="-113.9" font-family="Arial" font-size="14.00" fill="#666666">[varchar(255)]</text>
<polygon fill="none" stroke="#000000" points="819,-72.5 819,-102.5 1021,-102.5 1021,-72.5 819,-72.5"/>
<text text-anchor="start" x="826" y="-83.9" font-family="Arial" font-size="14.00" fill="#000000">created_at    </text>
<text text-anchor="start" x="926.3422" y="-83.9" font-family="Arial" font-size="14.00" fill="#666666">[datetime(6)]</text>
<polygon fill="none" stroke="#000000" points="819,-42.5 819,-72.5 1021,-72.5 1021,-42.5 819,-42.5"/>
<text text-anchor="start" x="826" y="-53.9" font-family="Arial" font-size="14.00" fill="#000000">updated_at    </text>
<text text-anchor="start" x="930.2468" y="-53.9" font-family="Arial" font-size="14.00" fill="#666666">[datetime(6)]</text>
</g>
<!-- user -->
<g id="node4" class="node">
<title>user</title>
<polygon fill="#efefef" stroke="transparent" points="1125,-192.5 1125,-227.5 1327,-227.5 1327,-192.5 1125,-192.5"/>
<polygon fill="none" stroke="#000000" points="1125,-192.5 1125,-227.5 1327,-227.5 1327,-192.5 1125,-192.5"/>
<text text-anchor="start" x="1144.7137" y="-205.3" font-family="Arial Bold" font-size="18.00" fill="#000000">user</text>
<text text-anchor="start" x="1179.7183" y="-205.3" font-family="Arial" font-size="14.00" fill="#000000">    </text>
<text text-anchor="start" x="1213.9231" y="-205.3" font-family="Arial" font-size="14.00" fill="#666666">[BASE TABLE]</text>
<polygon fill="none" stroke="#000000" points="1125,-162.5 1125,-192.5 1327,-192.5 1327,-162.5 1125,-162.5"/>
<text text-anchor="start" x="1131.5" y="-173.9" font-family="Arial" font-size="14.00" fill="#000000">jia_user_id    </text>
<text text-anchor="start" x="1233.3808" y="-173.9" font-family="Arial" font-size="14.00" fill="#666666">[varchar(255)]</text>
<polygon fill="none" stroke="#000000" points="1125,-132.5 1125,-162.5 1327,-162.5 1327,-132.5 1125,-132.5"/>
<text text-anchor="start" x="1132" y="-143.9" font-family="Arial" font-size="14.00" fill="#000000">created_at    </text>
<text text-anchor="start" x="1232.3422" y="-143.9" font-family="Arial" font-size="14.00" fill="#666666">[datetime(6)]</text>
</g>
</g>
</svg>
